<?xml version="1.0" encoding="UTF-8" standalone="no"?>
<svg
   xmlns:dc="http://purl.org/dc/elements/1.1/"
   xmlns:cc="http://creativecommons.org/ns#"
   xmlns:rdf="http://www.w3.org/1999/02/22-rdf-syntax-ns#"
   xmlns:svg="http://www.w3.org/2000/svg"
   xmlns="http://www.w3.org/2000/svg"
   xmlns:sodipodi="http://sodipodi.sourceforge.net/DTD/sodipodi-0.dtd"
   xmlns:inkscape="http://www.inkscape.org/namespaces/inkscape"
   viewBox="0 0 640 640"
   version="1.1"
   id="svg887"
   sodipodi:docname="icon-light.svg"
   width="640"
   height="640"
   inkscape:export-filename="C:\Users\10\Desktop\icon.png"
   inkscape:export-xdpi="19.200001"
   inkscape:export-ydpi="19.200001"
   inkscape:version="0.92.3 (2405546, 2018-03-11)">
  <metadata
     id="metadata893">
    <rdf:RDF>
      <cc:Work
         rdf:about="">
        <dc:format>image/svg+xml</dc:format>
        <dc:type
           rdf:resource="http://purl.org/dc/dcmitype/StillImage" />
        <dc:title></dc:title>
      </cc:Work>
    </rdf:RDF>
  </metadata>
  <defs
     id="defs891" />
  <sodipodi:namedview
     pagecolor="#ffffff"
     bordercolor="#666666"
     borderopacity="1"
     objecttolerance="10"
     gridtolerance="10"
     guidetolerance="10"
     inkscape:pageopacity="0"
     inkscape:pageshadow="2"
     inkscape:window-width="1920"
     inkscape:window-height="1017"
     id="namedview889"
     showgrid="false"
     inkscape:zoom="0.4484375"
     inkscape:cx="-42.369338"
     inkscape:cy="224"
     inkscape:window-x="-8"
     inkscape:window-y="-8"
     inkscape:window-maximized="1"
     inkscape:current-layer="svg887" />
  <path
     d="m 537.6,290.6 c 4.1,-10.7 6.4,-22.4 6.4,-34.6 0,-53 -43,-96 -96,-96 -19.7,0 -38.1,6 -53.3,16.2 C 367,128.2 315.3,96 256,96 167.6,96 96,167.6 96,256 c 0,2.7 0.1,5.4 0.2,8.1 C 40.2,283.8 0,337.2 0,400 0,479.5 64.5,544 144,544 h 368 c 70.7,0 128,-57.3 128,-128 0,-61.9 -44,-113.6 -102.4,-125.4 z M 404.7,379.3 299.3,484.7 c -6.2,6.2 -16.4,6.2 -22.6,0 L 171.3,379.3 C 161.2,369.2 168.4,352 182.6,352 H 248 V 240 c 0,-8.8 7.2,-16 16,-16 h 48 c 8.8,0 16,7.2 16,16 v 112 h 65.4 c 14.2,0 21.4,17.2 11.3,27.3 z"
     id="path885"
     style="fill:#cccccc;fill-opacity:1"
     inkscape:connector-curvature="0" />
</svg>
